<?xml version="1.0" standalone="no"?><!DOCTYPE svg PUBLIC "-//W3C//DTD SVG 1.1//EN" "http://www.w3.org/Graphics/SVG/1.1/DTD/svg11.dtd"><svg width="100%" height="100%" viewBox="0 0 1163 298" version="1.1" xmlns="http://www.w3.org/2000/svg" xmlns:xlink="http://www.w3.org/1999/xlink" xml:space="preserve" style="fill-rule:evenodd;clip-rule:evenodd;stroke-linejoin:round;stroke-miterlimit:1.41421;"><g><path d="M352.884,121.119l30.776,0l0,-15.388l-46.164,0l0,85.086l15.388,0l0,-34.397l22.931,0l0,-15.387l-22.931,0l0,-19.914Z" style="fill:#333;fill-rule:nonzero;"/><path d="M420.771,159.438c3.018,-1.358 5.733,-3.168 8.298,-5.733c5.28,-4.979 8.297,-12.069 8.297,-19.763c0,-7.694 -3.168,-14.332 -8.297,-19.763c-5.129,-5.28 -12.069,-8.146 -19.763,-8.146l-7.241,0l0,-0.151l-15.388,0l0,84.935l15.388,0l0,-28.815l2.263,0l17.198,28.815l17.952,0l-18.707,-31.379ZM402.065,121.421l7.241,0c3.47,0 6.487,1.206 8.901,3.62c2.414,2.565 3.62,5.582 3.62,8.901c0,3.47 -1.206,6.487 -3.62,8.901c-2.414,2.414 -5.431,3.621 -8.901,3.621l-7.241,0l0,-25.043Z" style="fill:#333;fill-rule:nonzero;"/><path d="M487.452,103.166c-12.521,0 -23.383,4.828 -31.681,13.125c-8.297,8.298 -13.125,19.16 -13.125,31.681c0,12.522 4.828,23.384 13.125,31.681c8.298,8.297 19.16,13.125 31.681,13.125c12.522,0 23.384,-4.828 31.681,-13.125c8.297,-8.297 13.125,-19.159 13.125,-31.681c0,-12.521 -4.828,-23.383 -13.125,-31.681c-8.297,-8.297 -19.159,-13.125 -31.681,-13.125ZM508.271,127.304c5.28,5.28 8.599,12.672 8.599,20.668c0,8.298 -3.168,15.388 -8.599,20.819c-5.431,5.431 -12.522,8.599 -20.819,8.599c-7.996,0 -15.388,-3.319 -20.668,-8.599c-5.431,-5.431 -8.75,-12.521 -8.75,-20.819c0,-7.996 3.319,-15.237 8.75,-20.668c5.431,-5.431 12.672,-8.75 20.668,-8.75c8.297,0 15.388,3.319 20.819,8.75Z" style="fill:#333;fill-rule:nonzero;"/><path d="M597.581,106.033l0,84.482l-13.427,-14.03l-31.832,-32.737l0,46.616l-15.387,0l0,-65.474l0,-18.857l13.426,14.03l31.832,32.737l0,-46.767l15.388,0Z" style="fill:#333;fill-rule:nonzero;"/><path d="M603.163,105.882l47.973,0l0,15.388l-16.594,0l0,69.547l-15.388,0l0,-69.547l-15.991,0l0,-15.388Z" style="fill:#333;fill-rule:nonzero;"/><path d="M671.201,121.119l30.776,0l0,-15.388l-46.164,0l0,85.086l46.164,0l0,-15.539l-30.776,0l0,-18.858l22.931,0l0,-15.387l-22.931,0l0,-19.914Z" style="fill:#333;fill-rule:nonzero;"/><path d="M768.205,106.033l0,84.482l-13.427,-14.03l-31.832,-32.737l0,46.616l-15.388,0l0,-65.474l0,-18.857l13.427,14.03l31.832,32.737l0,-46.767l15.388,0Z" style="fill:#333;fill-rule:nonzero;"/><path d="M789.174,121.421l0,54.008l9.806,0c7.393,0 14.181,-3.168 19.009,-7.996c4.827,-4.827 7.996,-11.616 7.996,-19.008c0,-7.392 -3.169,-14.181 -7.996,-19.009c-4.828,-4.978 -11.616,-7.995 -19.009,-7.995l-9.806,0ZM789.174,105.882l0,0.151l9.806,0c11.617,0 22.328,4.676 30.022,12.37c7.694,7.694 12.37,18.104 12.37,30.022c0,11.616 -4.676,22.327 -12.37,30.021c-7.694,7.694 -18.405,12.371 -30.022,12.371l-14.482,0l-10.711,0l0,-84.935l15.387,0Z" style="fill:#333;fill-rule:nonzero;"/><path d="M918.312,164.416c-2.867,4.073 -6.487,7.241 -10.862,9.504c-4.225,2.263 -8.901,3.47 -14.181,3.47c-8.298,0 -15.388,-3.319 -20.668,-8.599c-5.431,-5.431 -8.75,-12.521 -8.75,-20.819c0,-7.996 3.319,-15.237 8.75,-20.668c5.431,-5.431 12.672,-8.75 20.668,-8.75c4.676,0 9.202,1.056 13.426,3.319c4.224,2.263 7.694,5.129 10.41,8.901l12.521,-9.052c-4.375,-5.883 -9.655,-10.409 -15.991,-13.728c-6.035,-3.017 -12.974,-4.828 -20.366,-4.828c-12.522,0 -23.384,4.828 -31.681,13.125c-8.298,8.298 -13.125,19.16 -13.125,31.681c0,12.522 4.827,23.384 13.125,31.681c8.297,8.297 19.159,13.125 31.681,13.125c7.693,0 14.784,-1.66 21.271,-5.129c6.789,-3.47 12.22,-8.449 16.444,-14.634l-12.672,-8.599Z" style="fill:#ff00d5;fill-rule:nonzero;"/><path d="M980.617,103.166c-12.521,0 -23.383,4.828 -31.681,13.125c-8.297,8.298 -13.125,19.16 -13.125,31.681c0,12.522 4.828,23.384 13.125,31.681c8.298,8.297 19.16,13.125 31.681,13.125c12.522,0 23.384,-4.828 31.681,-13.125c8.297,-8.297 13.125,-19.159 13.125,-31.681c0,-12.521 -4.828,-23.383 -13.125,-31.681c-8.297,-8.297 -19.159,-13.125 -31.681,-13.125ZM1001.44,127.304c5.28,5.28 8.599,12.672 8.599,20.668c0,8.298 -3.168,15.388 -8.599,20.819c-5.431,5.431 -12.521,8.599 -20.819,8.599c-7.995,0 -15.388,-3.319 -20.668,-8.599c-5.431,-5.431 -8.75,-12.521 -8.75,-20.819c0,-7.996 3.319,-15.237 8.75,-20.668c5.431,-5.431 12.673,-8.75 20.668,-8.75c8.298,0 15.388,3.319 20.819,8.75Z" style="fill:#ff00d5;fill-rule:nonzero;"/><path d="M1064.19,159.438c3.017,-1.358 5.733,-3.168 8.298,-5.733c5.28,-4.979 8.297,-12.069 8.297,-19.763c0,-7.694 -3.168,-14.332 -8.297,-19.763c-5.13,-5.28 -12.069,-8.146 -19.763,-8.146l-7.242,0l0,-0.151l-15.387,0l0,84.935l15.387,0l0,-28.815l2.263,0l17.199,28.815l17.952,0l-18.707,-31.379ZM1045.49,121.421l7.242,0c3.47,0 6.487,1.206 8.901,3.62c2.413,2.565 3.62,5.582 3.62,8.901c0,3.47 -1.207,6.487 -3.62,8.901c-2.414,2.414 -5.431,3.621 -8.901,3.621l-7.242,0l0,-25.043Z" style="fill:#ff00d5;fill-rule:nonzero;"/><path d="M1101.46,121.119l30.776,0l0,-15.388l-46.164,0l0,85.086l46.164,0l0,-15.539l-30.776,0l0,-18.858l22.931,0l0,-15.387l-22.931,0l0,-19.914Z" style="fill:#ff00d5;fill-rule:nonzero;"/></g><path d="M169.268,6.253l-146.33,138.646l138.646,146.331l146.331,-138.647l-138.647,-146.33Z" style="fill:#f3c2fd;"/><path d="M167.165,23.907l-124.072,124.071l124.072,124.072l124.071,-124.072l-124.071,-124.071Z" style="fill:#cf489a;"/><path d="M179.327,57.252l-86.238,94.028l94.028,86.238l86.238,-94.028l-94.028,-86.238Z" style="fill:#d023f6;"/><g><rect x="129.026" y="156.932" width="37.042" height="7.9" style="fill:#fff;fill-rule:nonzero;"/><path d="M178.357,125.858l17.906,0l0,-8.953l-26.859,0l0,49.507l8.953,0l0,-20.014l13.342,0l0,-8.953l-13.342,0l0,-11.587Z" style="fill:#fff;fill-rule:nonzero;"/><path d="M238.66,151.051c-1.668,2.37 -3.774,4.213 -6.32,5.529c-2.458,1.317 -5.179,2.019 -8.251,2.019c-4.828,0 -8.953,-1.931 -12.026,-5.003c-3.16,-3.16 -5.091,-7.285 -5.091,-12.113c0,-4.652 1.931,-8.866 5.091,-12.026c3.16,-3.16 7.374,-5.091 12.026,-5.091c2.721,0 5.354,0.615 7.812,1.931c2.458,1.317 4.477,2.985 6.057,5.179l7.285,-5.267c-2.545,-3.423 -5.617,-6.056 -9.304,-7.987c-3.511,-1.756 -7.549,-2.809 -11.85,-2.809c-7.286,0 -13.606,2.809 -18.433,7.636c-4.828,4.828 -7.637,11.148 -7.637,18.434c0,7.285 2.809,13.605 7.637,18.433c4.827,4.828 11.147,7.637 18.433,7.637c4.477,0 8.602,-0.966 12.377,-2.985c3.95,-2.019 7.11,-4.915 9.567,-8.514l-7.373,-5.003Z" style="fill:#fff;fill-rule:nonzero;"/></g></svg>