<?xml version="1.0" encoding="utf-8"?>
<!-- Generator: Adobe Illustrator 19.0.0, SVG Export Plug-In . SVG Version: 6.00 Build 0)  -->
<svg version="1.0" id="Layer_1" xmlns="http://www.w3.org/2000/svg" xmlns:xlink="http://www.w3.org/1999/xlink" x="0px" y="0px"
	 viewBox="598 -304.5 1792 1425.8" style="enable-background:new 598 -304.5 1792 1425.8;" xml:space="preserve">
<g>
	<path d="M1494-286.7c-494.8,0-896,401.2-896,896c0,190.7,58.3,366.6,160,512h1472c101.7-145.4,160-321.3,160-512
		C2390,114.5,1988.8-286.7,1494-286.7z M1494-114.6c61.8,0,112.1,50.1,112.1,112.1S1556,109.6,1494,109.6S1381.9,59.5,1381.9-2.5
		S1432.2-114.6,1494-114.6z M958,153.3c10.8-1.8,25.2-1.3,36,0c14.4,1.8,26.7,8.2,40,16.1c53.6,30.9,75,98.4,44.1,152
		c-30.9,53.6-102.4,70.9-156,40s-70.9-98.4-40-152C899.3,179.2,925.9,158.9,958,153.3z M2002,157.3c43.3-5.3,88.9,15.9,112.1,56
		c30.9,53.6,13.5,121.1-40,152c-53.6,30.9-125.1,13.5-156-40s-9.5-121.1,44.1-152C1975.5,165.5,1987.5,159.1,2002,157.3z
		 M2138,493.4c22.3,1.8,36,9.7,40,19.9c15.7,41.3-137,137.3-344,216c-87.6,33.3-172.4,53.8-240.1,68c-8.6,33.5-33.3,62.7-68,76.1
		c-56.9,21.6-118.3-7.1-140.1-64c-21.6-56.9,7.1-122.3,64-144.1c38.8-14.8,78.4-4.9,108.1,19.9c59.4-33.6,130.4-71.5,216-104
		C1929.2,522.3,2070.9,488.1,2138,493.4z M2150.1,681.4c10.8-1.8,25.2-1.3,36,0c14.4,1.8,26.7,8.2,40,16.1
		c53.6,30.9,70.9,98.4,40,152c-30.9,53.6-98.4,70.9-152,40c-53.6-30.9-70.9-98.4-40-152C2091.4,707.1,2117.9,686.9,2150.1,681.4z
		 M806.1,685.4c41.7-5.1,81.6,17.2,104,56c29.8,51.6,11.7,118.1-40,147.9C818.3,919.1,756,901,726,849.2
		c-30-51.7-15.7-118.1,36-147.9C774.8,693.8,792,687,806.1,685.4z"/>
</g>
</svg>
