<?xml version="1.0" encoding="utf-8"?>
<!-- Generator: Adobe Illustrator 19.0.0, SVG Export Plug-In . SVG Version: 6.00 Build 0)  -->
<svg version="1.1" id="Layer_1" xmlns="http://www.w3.org/2000/svg" xmlns:xlink="http://www.w3.org/1999/xlink" x="0px" y="0px"
	 viewBox="416 -616 1792 1792" style="enable-background:new 416 -616 1792 1792;" xml:space="preserve">
<path d="M2080,812V44c-21.3,24-44.3,46-69,66c-178.7,137.3-320.7,250-426,338c-34,28.7-61.7,51-83,67s-50.2,32.2-86.5,48.5
	C1379.2,579.8,1345,588,1313,588h-2c-32,0-66.2-8.2-102.5-24.5S1143.3,531,1122,515s-49-38.3-83-67c-105.3-88-247.3-200.7-426-338
	c-24.7-20-47.7-42-69-66v768c0,8.7,3.2,16.2,9.5,22.5s13.8,9.5,22.5,9.5h1472c8.7,0,16.2-3.2,22.5-9.5S2080,820.7,2080,812z
	 M2080-239v-24.5l-0.5-13l-3-12.5l-5.5-9l-9-7.5l-14-2.5H576c-8.7,0-16.2,3.2-22.5,9.5S544-284.7,544-276c0,112,49,206.7,147,284
	c128.7,101.3,262.3,207,401,317c4,3.3,15.7,13.2,35,29.5s34.7,28.8,46,37.5s26.2,19.2,44.5,31.5s35.2,21.5,50.5,27.5s29.7,9,43,9h2
	c13.3,0,27.7-3,43-9s32.2-15.2,50.5-27.5s33.2-22.8,44.5-31.5c11.3-8.7,26.7-21.2,46-37.5s31-26.2,35-29.5
	c138.7-110,272.3-215.7,401-317c36-28.7,69.5-67.2,100.5-115.5S2080-199.7,2080-239z M2208-276V812c0,44-15.7,81.7-47,113
	s-69,47-113,47H576c-44,0-81.7-15.7-113-47s-47-69-47-113V-276c0-44,15.7-81.7,47-113s69-47,113-47h1472c44,0,81.7,15.7,113,47
	S2208-320,2208-276z"/>
</svg>
