<?xml version="1.0" encoding="UTF-8" standalone="no"?>
<svg width="1793px" height="2203px" viewBox="0 0 1793 2203" version="1.1" xmlns="http://www.w3.org/2000/svg" xmlns:xlink="http://www.w3.org/1999/xlink">
    <!-- Generator: Sketch 41.1 (35376) - http://www.bohemiancoding.com/sketch -->
    <title>Slice 1</title>
    <desc>Created with Sketch.</desc>
    <defs></defs>
    <g id="Page-1" stroke="none" stroke-width="1" fill="none" fill-rule="evenodd">
        <path d="M1647.75853,633.965441 L1655,640 L1660.5,649 L1663.5,661.5 L1664,674.5 L1664,699 C1664,738.3 1648.5,782.2 1617.5,830.5 C1586.5,878.8 1553,917.3 1517,946 C1388.3,1047.3 1254.7,1153 1116,1263 C1112,1266.3 1100.3,1276.2 1081,1292.5 C1061.7,1308.8 1046.3,1321.3 1035,1330 C1023.7,1338.7 1008.8,1349.2 990.5,1361.5 C972.2,1373.8 955.3,1383 940,1389 C924.7,1395 910.3,1398 897,1398 L895,1398 C881.7,1398 867.3,1395 852,1389 C836.7,1383 819.8,1373.8 801.5,1361.5 C783.2,1349.2 768.3,1338.7 757,1330 C745.7,1321.3 730.3,1308.8 711,1292.5 C691.7,1276.2 680,1266.3 676,1263 C537.3,1153 403.7,1047.3 275,946 C177,868.7 128,774 128,662 C128,653.3 131.2,645.8 137.5,639.5 C142.008235,634.991765 147.130958,632.070956 152.868169,630.774219 L726.486921,212.958879 C726.486921,212.958879 828.71875,131.78125 883.375,135.90625 C938.03125,140.03125 1028.72166,211.651492 1028.72166,211.651492 L1656.57813,633.921875 L1647.75853,633.965441 Z M1792,662 L1792,1750 C1792,1794 1776.3,1831.7 1745,1863 C1713.7,1894.3 1676,1910 1632,1910 L160,1910 C116,1910 78.3,1894.3 47,1863 C15.7,1831.7 2.72848411e-12,1794 2.72848411e-12,1750 L2.72848411e-12,662 C2.72848411e-12,618 15.7,580.3 47,549 C78.3,517.7 56.734375,544.15625 142.640625,484.90625 C773.59375,19.21875 697.671875,-5.875 885.359375,0.90625 C1047.8125,-0.140625 990,-14.96875 1641.89063,468.953125 C1714.01563,511.3125 1713.7,517.7 1745,549 C1776.3,580.3 1792,618 1792,662 Z M1664,1750 L1664,982 C1642.7,1006 1619.7,1028 1595,1048 C1416.3,1185.3 1274.3,1298 1169,1386 C1135,1414.7 1107.3,1437 1086,1453 C1064.7,1469 1035.8,1485.2 999.5,1501.5 C963.2,1517.8 929,1526 897,1526 L895,1526 C863,1526 828.8,1517.8 792.5,1501.5 C756.2,1485.2 727.3,1469 706,1453 C684.7,1437 657,1414.7 623,1386 C517.7,1298 375.7,1185.3 197,1048 C172.3,1028 149.3,1006 128,982 L128,1750 C128,1758.7 131.2,1766.2 137.5,1772.5 C143.8,1778.8 151.3,1782 160,1782 L1632,1782 C1640.7,1782 1648.2,1778.8 1654.5,1772.5 C1660.8,1766.2 1664,1758.7 1664,1750 Z" id="Combined-Shape" fill="#000000"></path>
    </g>
</svg>